<svg width="281" height="52" viewBox="0 0 281 52" fill="none" xmlns="http://www.w3.org/2000/svg">
  <circle cx="25.5417" cy="25.5417" r="25.5417" fill="#A728FE"/>
  <path d="M27.3487 41.0028C32.8775 40.4929 37.2067 35.8422 37.2067 30.1803C37.2067 24.5185 32.8775 19.8678 27.3487 19.3579C26.7923 19.3066 26.3379 19.7645 26.3379 20.3232V40.0375C26.3379 40.5962 26.7923 41.0541 27.3487 41.0028Z" fill="white"/>
  <path d="M23.7666 9.16812C18.2378 9.67799 13.9085 14.3287 13.9085 19.9906C13.9085 25.6524 18.2378 30.3031 23.7665 30.813C24.3229 30.8643 24.7773 30.4064 24.7773 29.8477L24.7773 10.1334C24.7773 9.57469 24.3229 9.11681 23.7666 9.16812Z" fill="white"/>
  <path d="M86.8745 10.529C86.8745 3.68313 82.4707 0 76.906 0C71.3012 0 66.9375 3.68313 66.9375 10.529C66.9375 17.3347 71.3012 21.0579 76.906 21.0579C82.4707 21.0579 86.8745 17.3748 86.8745 10.529ZM81.1496 10.529C81.1496 14.2121 79.6683 16.2138 76.906 16.2138C74.1436 16.2138 72.6624 14.2121 72.6624 10.529C72.6624 6.84582 74.1436 4.84412 76.906 4.84412C79.6683 4.84412 81.1496 6.84582 81.1496 10.529Z" fill="#22232F"/>
  <path d="M89.5883 26.5426H95.113V18.2555H95.1931C95.8337 19.8169 97.3149 20.9778 99.4768 20.9778C102.76 20.9778 105.522 18.4157 105.522 13.0911C105.522 7.5264 102.559 5.20443 99.5168 5.20443C97.2349 5.20443 95.7936 6.52555 95.1931 8.08688H95.073V5.4046H89.5883V26.5426ZM94.9929 13.0911C94.9929 10.8092 95.9137 9.44804 97.435 9.44804C98.9563 9.44804 99.8371 10.8092 99.8371 13.0911C99.8371 15.3731 98.9563 16.7342 97.435 16.7342C95.9137 16.7342 94.9929 15.333 94.9929 13.0911Z" fill="#22232F"/>
  <path d="M115.262 21.0579C119.525 21.0579 122.268 19.0162 122.788 15.8134H117.744C117.424 16.6842 116.513 17.1746 115.382 17.1746C113.74 17.1746 112.78 16.0937 112.78 14.6124V14.3722H122.788V13.0911C122.788 8.19697 119.786 5.20443 115.142 5.20443C110.378 5.20443 107.335 8.36712 107.335 13.1312C107.335 18.1054 110.338 21.0579 115.262 21.0579ZM112.78 11.3296C112.81 9.9985 113.911 9.08773 115.262 9.08773C116.633 9.08773 117.674 10.0085 117.704 11.3296H112.78Z" fill="#22232F"/>
  <path d="M130.626 12.1303C130.636 10.609 131.497 9.68824 132.868 9.68824C134.26 9.68824 135.08 10.609 135.07 12.1303V20.7777H140.595V10.9693C140.605 7.62649 138.493 5.20443 135.23 5.20443C132.968 5.20443 131.177 6.38543 130.506 8.32708H130.346V5.4046H125.102V20.7777H130.626V12.1303Z" fill="#22232F"/>
  <path d="M156.862 20.7777C163.107 20.7777 167.071 16.9344 167.071 10.529C167.071 4.12351 163.107 0.280238 156.782 0.280238H148.975V20.7777H156.862ZM154.54 16.0537V5.00426H156.502C159.704 5.00426 161.466 6.24531 161.466 10.529C161.466 14.8126 159.704 16.0537 156.662 16.0537H154.54Z" fill="#22232F"/>
  <path d="M174.068 21.0179C176.07 21.0179 177.581 20.3373 178.512 18.6158H178.632V20.7777H183.796V10.2487C183.796 7.4063 181.104 5.20443 176.71 5.20443C172.116 5.20443 169.855 7.60647 169.664 10.4089H174.749C174.879 9.45804 175.579 9.00766 176.63 9.00766C177.591 9.00766 178.272 9.44804 178.272 10.2487V10.2888C178.272 11.1795 177.291 11.4597 174.709 11.6499C171.536 11.8801 169.064 13.1612 169.064 16.5341C169.064 19.5967 171.126 21.0179 174.068 21.0179ZM175.87 17.5349C174.929 17.5349 174.268 17.0745 174.268 16.2138C174.268 15.4231 174.829 14.8126 176.11 14.6124C176.991 14.4723 177.731 14.2922 178.312 14.052V15.333C178.312 16.7342 177.121 17.5349 175.87 17.5349Z" fill="#22232F"/>
  <path d="M195.663 5.4046H193.021V1.72146H187.496V5.4046H185.534V9.408H187.496V16.3539C187.456 19.5766 189.448 21.208 193.261 20.9979C194.512 20.9278 195.443 20.6676 195.943 20.5175L195.143 16.6341C194.932 16.6842 194.392 16.7943 194.062 16.7943C193.341 16.7943 193.021 16.474 193.021 15.8335V9.408H195.663V5.4046Z" fill="#22232F"/>
  <path d="M202.26 21.0179C204.262 21.0179 205.773 20.3373 206.704 18.6158H206.824V20.7777H211.989V10.2487C211.989 7.4063 209.296 5.20443 204.903 5.20443C200.309 5.20443 198.047 7.60647 197.857 10.4089H202.941C203.071 9.45804 203.772 9.00766 204.822 9.00766C205.783 9.00766 206.464 9.44804 206.464 10.2487V10.2888C206.464 11.1795 205.483 11.4597 202.901 11.6499C199.728 11.8801 197.256 13.1612 197.256 16.5341C197.256 19.5967 199.318 21.0179 202.26 21.0179ZM204.062 17.5349C203.121 17.5349 202.46 17.0745 202.46 16.2138C202.46 15.4231 203.021 14.8126 204.302 14.6124C205.183 14.4723 205.923 14.2922 206.504 14.052V15.333C206.504 16.7342 205.313 17.5349 204.062 17.5349Z" fill="#22232F"/>
  <path d="M86.1538 36.1507C85.7135 31.0664 81.9903 28.184 76.8259 28.184C71.3012 28.184 66.9375 31.8671 66.9375 38.7129C66.9375 45.5287 71.1811 49.2419 76.8259 49.2419C82.831 49.2419 85.8736 45.0783 86.1538 41.5954L80.509 41.5553C80.2288 43.3068 78.9878 44.3978 76.946 44.3978C74.2337 44.3978 72.6624 42.4761 72.6624 38.7129C72.6624 35.1499 74.1837 33.0281 76.986 33.0281C79.1279 33.0281 80.3489 34.2892 80.509 36.1507H86.1538Z" fill="#22232F"/>
  <path d="M95.0759 28.4642H89.5512V48.9616H95.0759V28.4642Z" fill="#22232F"/>
  <path d="M105.356 49.2419C110.361 49.2419 113.323 46.0392 113.323 41.3151C113.323 36.5911 110.361 33.3884 105.356 33.3884C100.352 33.3884 97.3895 36.5911 97.3895 41.3151C97.3895 46.0392 100.352 49.2419 105.356 49.2419ZM105.396 45.1584C103.915 45.1584 103.034 43.6872 103.034 41.2751C103.034 38.8631 103.915 37.3918 105.396 37.3918C106.797 37.3918 107.678 38.8631 107.678 41.2751C107.678 43.6872 106.797 45.1584 105.396 45.1584Z" fill="#22232F"/>
  <path d="M125.593 42.2359C125.603 43.7572 124.722 44.678 123.351 44.678C121.959 44.678 121.159 43.7572 121.149 42.2359V33.5886H115.624V43.3969C115.634 46.7598 117.756 49.1618 120.989 49.1618C123.281 49.1618 125.042 48.0008 125.713 46.0392H125.873V48.9616H131.117V33.5886H125.593V42.2359Z" fill="#22232F"/>
  <path d="M139.551 49.1618C141.713 49.1618 143.194 48.0008 143.835 46.4395H143.955V48.9616H149.439V28.4642H143.915V36.2708H143.835C143.234 34.7095 141.793 33.3884 139.511 33.3884C136.468 33.3884 133.506 35.7104 133.506 41.2751C133.506 46.5996 136.268 49.1618 139.551 49.1618ZM141.593 44.9182C140.071 44.9182 139.191 43.557 139.191 41.2751C139.191 38.9932 140.071 37.632 141.593 37.632C143.114 37.632 144.035 38.9932 144.035 41.2751C144.035 43.517 143.114 44.9182 141.593 44.9182Z" fill="#22232F"/>
  <path d="M168.854 34.8697H174.179C174.159 30.8462 171.056 28.184 166.092 28.184C161.218 28.184 157.775 30.8062 157.805 34.7095C157.795 37.9122 160.017 39.6938 163.65 40.4744L165.691 40.9148C167.973 41.4152 168.754 41.9857 168.774 42.9165C168.754 43.9274 167.833 44.638 166.052 44.638C163.92 44.638 162.659 43.6371 162.569 41.7555H157.284C157.304 46.8999 160.787 49.2018 166.132 49.2018C171.326 49.2018 174.439 46.9599 174.459 42.9165C174.439 39.7938 172.577 37.602 168.053 36.6312L166.372 36.2708C164.43 35.8605 163.56 35.29 163.61 34.3092C163.62 33.4084 164.37 32.7478 166.092 32.7478C167.893 32.7478 168.744 33.5385 168.854 34.8697Z" fill="#22232F"/>
  <path d="M184.081 49.2419C188.345 49.2419 191.087 47.2001 191.608 43.9974H186.563C186.243 44.8682 185.332 45.3586 184.201 45.3586C182.56 45.3586 181.599 44.2777 181.599 42.7964V42.5562H191.608V41.2751C191.608 36.3809 188.605 33.3884 183.961 33.3884C179.197 33.3884 176.154 36.5511 176.154 41.3151C176.154 46.2894 179.157 49.2419 184.081 49.2419ZM181.599 39.5136C181.629 38.1825 182.73 37.2717 184.081 37.2717C185.452 37.2717 186.493 38.1925 186.523 39.5136H181.599Z" fill="#22232F"/>
  <path d="M193.921 48.9616H199.446V40.9548C199.446 39.1933 200.657 38.0323 202.288 38.0323C202.859 38.0323 203.779 38.1224 204.33 38.3126V33.5986C203.89 33.4685 203.409 33.3884 202.929 33.3884C201.287 33.3884 200.006 34.3492 199.446 36.5111H199.286V33.5886H193.921V48.9616Z" fill="#22232F"/>
  <path d="M222.162 33.5886H216.357L213.875 43.7572H213.715L211.232 33.5886H205.427L210.592 48.9616H216.997L222.162 33.5886Z" fill="#22232F"/>
  <path d="M223.792 48.9616H229.317V33.5886H223.792V48.9616Z" fill="#22232F"/>
  <path d="M239.597 49.2419C244.151 49.2419 246.943 46.6297 247.003 42.5562H241.879C241.759 44.1676 240.888 45.0383 239.677 45.0383C238.226 45.0383 237.275 43.7973 237.275 41.2751C237.275 38.753 238.226 37.5119 239.677 37.5119C240.898 37.5119 241.729 38.3826 241.879 39.994H247.003C246.973 35.9906 244.121 33.3884 239.597 33.3884C234.593 33.3884 231.63 36.5911 231.63 41.3151C231.63 46.0392 234.593 49.2419 239.597 49.2419Z" fill="#22232F"/>
  <path d="M256.708 49.2419C260.972 49.2419 263.714 47.2001 264.235 43.9974H259.19C258.87 44.8682 257.959 45.3586 256.828 45.3586C255.187 45.3586 254.226 44.2777 254.226 42.7964V42.5562H264.235V41.2751C264.235 36.3809 261.232 33.3884 256.588 33.3884C251.824 33.3884 248.782 36.5511 248.782 41.3151C248.782 46.2894 251.784 49.2419 256.708 49.2419ZM254.226 39.5136C254.256 38.1825 255.357 37.2717 256.708 37.2717C258.079 37.2717 259.12 38.1925 259.15 39.5136H254.226Z" fill="#22232F"/>
  <path d="M280.6 38.5928C280.46 35.3401 277.758 33.3884 273.314 33.3884C268.92 33.3884 266.208 35.1899 266.228 38.3927C266.208 40.8147 267.779 42.366 270.912 42.9165L273.634 43.3969C274.835 43.6171 275.376 43.9374 275.396 44.5179C275.376 45.1584 274.645 45.5187 273.634 45.5187C272.383 45.5187 271.503 44.9783 271.352 43.9974H265.868C266.168 47.1501 268.89 49.2419 273.594 49.2419C277.848 49.2419 280.981 47.1701 281.001 43.8773C280.981 41.6054 279.459 40.2843 276.317 39.7138L273.194 39.1533C272.023 38.9431 271.693 38.5228 271.713 38.0724C271.693 37.4318 272.483 37.0715 273.434 37.0715C274.525 37.0715 275.436 37.652 275.516 38.5928H280.6Z" fill="#22232F"/>
  <circle r="4.84412" transform="matrix(1 0 0 -1 226.353 30.4213)" fill="black" stroke="white" stroke-width="2.64225"/>
</svg>
