<svg width="16" height="16" viewBox="0 0 16 16" fill="none" xmlns="http://www.w3.org/2000/svg">
  <circle cx="8" cy="8" r="8" fill="#FFDBCC"/>
  <path d="M8.74028 3.72656L8.60179 8.81889H7.30207L7.16003 3.72656H8.74028ZM7.95193 11.0916C7.71756 11.0916 7.51633 11.0088 7.34824 10.843C7.18015 10.675 7.09729 10.4737 7.09966 10.2393C7.09729 10.0073 7.18015 9.80848 7.34824 9.64276C7.51633 9.47704 7.71756 9.39418 7.95193 9.39418C8.17684 9.39418 8.37452 9.47704 8.54497 9.64276C8.71543 9.80848 8.80184 10.0073 8.8042 10.2393C8.80184 10.3956 8.76041 10.5388 8.67991 10.669C8.60179 10.7969 8.49881 10.8999 8.37097 10.978C8.24312 11.0537 8.10345 11.0916 7.95193 11.0916Z" fill="#FD6C2E"/>
</svg>  