<?xml version="1.0" encoding="UTF-8" standalone="no"?>
<svg xmlns:dc="http://purl.org/dc/elements/1.1/" xmlns:cc="http://creativecommons.org/ns#" xmlns:rdf="http://www.w3.org/1999/02/22-rdf-syntax-ns#" xmlns:svg="http://www.w3.org/2000/svg" xmlns="http://www.w3.org/2000/svg" viewBox="0 0 224.05333 168.54668" height="168.54668" width="224.05333" xml:space="preserve" id="svg2" version="1.1"><metadata id="metadata8"><rdf:RDF><cc:Work rdf:about=""><dc:format>image/svg+xml</dc:format><dc:type rdf:resource="http://purl.org/dc/dcmitype/StillImage"/></cc:Work></rdf:RDF></metadata><defs id="defs6"/><g transform="matrix(1.3333333,0,0,-1.3333333,0,168.54667)" id="g10"><g transform="scale(0.1)" id="g12"><path id="path14" style="fill:#231f20;fill-opacity:1;fill-rule:nonzero;stroke:none" d="m 588.258,509.215 c 0,-9.406 -6.168,-13.098 -11.09,-13.098 -6.5,0 -9.637,4.59 -9.637,11.418 v 39.207 h -9.179 v -43.125 c 0,-9.629 5.371,-14.558 15.234,-14.558 5.926,0 11.309,2.8 14.336,7.949 h 0.336 V 490.18 H 598 c -0.34,3.925 -0.562,7.843 -0.562,11.758 v 44.804 h -9.18 v -37.527"/><path id="path16" style="fill:#231f20;fill-opacity:1;fill-rule:nonzero;stroke:none" d="m 653.891,490.18 v 39.199 c 0,11.203 -3.028,18.476 -15.121,18.476 -7.286,0 -11.543,-2.011 -15.122,-8.398 h -0.441 v 7.285 h -9.75 c 0.336,-3.926 0.551,-7.832 0.551,-11.765 V 490.18 h 9.199 v 33.496 c 0,7.726 1.453,16.679 11.531,16.679 7.836,0 9.965,-4.929 9.965,-10.976 V 490.18 h 9.188 v 0"/><path id="path18" style="fill:#231f20;fill-opacity:1;fill-rule:nonzero;stroke:none" d="m 699.023,520.758 c 0,-11.418 0,-24.199 -10.3,-24.199 -11.535,0 -11.535,12.332 -11.535,20.839 0,15.118 1.351,22.957 11.207,22.957 10.179,0 10.628,-12.097 10.628,-19.597 z m 0,20.281 h -0.328 c -3.144,4.465 -7.058,6.816 -12.429,6.816 -18.262,0 -18.707,-16.23 -18.707,-30.351 0,-24.863 9.179,-28.445 18.257,-28.445 5.934,0 9.848,2.578 12.985,7.851 h 0.222 v -6.73 h 9.184 v 80.859 h -9.184 v -30"/><path id="path20" style="fill:#231f20;fill-opacity:1;fill-rule:nonzero;stroke:none" d="m 757.148,490.18 v 36.965 h 28.227 v 8.964 h -28.227 v 25.985 h 29.786 v 8.945 H 746.836 V 490.18 h 10.312 v 0"/><path id="path22" style="fill:#231f20;fill-opacity:1;fill-rule:nonzero;stroke:none" d="m 815.141,496.559 c -9.524,0 -11.879,6.609 -11.879,24.988 0,15.461 4.808,18.808 11.879,18.808 7.05,0 11.871,-3.347 11.871,-18.808 0,-18.379 -2.352,-24.988 -11.871,-24.988 z m 0,-7.5 c 11.984,0 21.496,3.582 21.496,28.562 0,16.582 -1.899,30.234 -21.496,30.234 -19.602,0 -21.508,-13.652 -21.508,-30.234 0,-24.98 9.515,-28.562 21.508,-28.562 v 0"/><path id="path24" style="fill:#231f20;fill-opacity:1;fill-rule:nonzero;stroke:none" d="m 860.168,546.742 h -9.18 V 490.18 h 9.18 v 33.371 c 0,7.625 2.578,15.359 12.754,15.359 1.68,0 3.262,-0.351 4.941,-0.574 v 9.519 c -8.965,0 -13.652,-0.996 -17.465,-9.628 h -0.23 v 8.515"/><path id="path26" style="fill:#231f20;fill-opacity:1;fill-rule:nonzero;stroke:none" d="m 923.723,506.312 c 0,17.239 -28.243,17.024 -28.243,26.993 0,4.922 3.829,7.609 8.75,7.609 5.821,0 8.965,-3.137 8.848,-9.062 h 10.195 c 0.782,11.191 -7.832,16.003 -17.91,16.003 -15.918,0 -19.511,-9.519 -19.511,-15.449 0,-16.914 28.242,-17.136 28.242,-27.215 0,-5.832 -4.258,-8.632 -9.766,-8.632 -9.277,0 -9.394,7.625 -9.394,10.867 h -10.411 c -0.351,-12.988 7.286,-18.367 19.493,-18.367 11.191,0 19.707,4.812 19.707,17.253 v 0"/><path id="path28" style="fill:#231f20;fill-opacity:1;fill-rule:nonzero;stroke:none" d="m 974.426,528.609 c 0.566,12.657 -6.055,19.246 -17.364,19.246 -19.589,0 -21.503,-13.652 -21.503,-30.234 0,-24.98 9.531,-28.562 21.503,-28.562 6.29,0 18.165,4.031 17.813,19.941 h -9.629 c 0.332,-10.195 -6.055,-12.441 -8.184,-12.441 -9.511,0 -11.855,6.609 -11.855,24.988 0,15.461 4.805,18.808 11.855,18.808 3.477,0 8.067,-2.468 7.852,-11.746 h 9.512 v 0"/><path id="path30" style="fill:#231f20;fill-opacity:1;fill-rule:nonzero;stroke:none" d="m 1029.52,490.18 v 40.097 c 0,12.766 -5.37,17.578 -15,17.578 -7.38,0 -11.64,-1.785 -15.329,-8.398 h -0.449 v 31.582 h -9.18 V 490.18 h 9.18 v 33.273 c 0,9.512 2.348,16.902 11.528,16.902 7.85,0 10.07,-4.929 10.07,-11.875 v -38.3 h 9.18 v 0"/><path id="path32" style="fill:#231f20;fill-opacity:1;fill-rule:nonzero;stroke:none" d="m 1075.91,509.215 c 0,-9.406 -6.15,-13.098 -11.09,-13.098 -6.51,0 -9.63,4.59 -9.63,11.418 v 39.207 h -9.18 v -43.125 c 0,-9.629 5.37,-14.558 15.23,-14.558 5.94,0 11.31,2.8 14.34,7.949 h 0.33 v -6.828 h 9.75 c -0.36,3.925 -0.57,7.843 -0.57,11.758 v 44.804 h -9.18 v -37.527"/><path id="path34" style="fill:#231f20;fill-opacity:1;fill-rule:nonzero;stroke:none" d="m 1141.54,490.18 v 39.199 c 0,11.203 -3.03,18.476 -15.12,18.476 -7.27,0 -11.53,-2.011 -15.12,-8.398 h -0.45 v 7.285 h -9.73 c 0.32,-3.926 0.55,-7.832 0.55,-11.765 V 490.18 h 9.18 v 33.496 c 0,7.726 1.47,16.679 11.54,16.679 7.84,0 9.97,-4.929 9.97,-10.976 V 490.18 h 9.18 v 0"/><path id="path36" style="fill:#231f20;fill-opacity:1;fill-rule:nonzero;stroke:none" d="m 1186.91,518.746 c 0,-7.851 0.33,-20.949 -10.75,-20.949 -6.83,0 -10.99,4.25 -10.99,22.394 0,7.508 0.35,20.047 10.76,20.047 11.52,0 10.98,-13.093 10.98,-21.492 z m -0.22,21.055 h -0.23 c -2.58,5.476 -7.27,8.054 -13.21,8.054 -4.59,0 -17.69,-1.667 -17.69,-27.664 0,-16.796 3.01,-30.011 18.36,-30.011 4.92,0 10.08,2.578 12.42,7.05 h 0.35 v -11.757 c 0,-5.821 -3.48,-9.746 -9.86,-9.746 -5.04,0 -8.52,2.91 -8.62,8.183 h -10.31 c -0.78,-10.418 7.74,-15.117 17.13,-15.117 12.42,0 20.84,3.019 20.84,15.676 v 62.273 h -9.18 v -6.941"/><path id="path38" style="fill:#231f20;fill-opacity:1;fill-rule:nonzero;stroke:none" d="m 554.32,666.742 v -6.941 h 8.727 V 610.18 h 9.191 v 49.621 h 11.426 v 6.941 h -11.426 v 9.629 c 0,4.59 1.672,8.742 11.426,8.078 v 6.59 c -1.348,0.234 -2.476,0.344 -4.383,0.344 -8.172,0 -16.234,-2.238 -16.234,-13.672 v -10.969 h -8.727 v 0"/><path id="path40" style="fill:#231f20;fill-opacity:1;fill-rule:nonzero;stroke:none" d="m 607.824,687.906 h -10.527 v -11.64 h 10.527 z m 19.715,0 h -10.535 v -11.64 h 10.535 z m -4.82,-58.691 c 0,-9.406 -6.16,-13.098 -11.094,-13.098 -6.484,0 -9.621,4.602 -9.621,11.418 v 39.207 h -9.192 v -43.125 c 0,-9.629 5.383,-14.558 15.235,-14.558 5.933,0 11.308,2.8 14.336,7.949 h 0.336 v -6.828 h 9.742 c -0.328,3.925 -0.551,7.843 -0.551,11.758 v 44.804 h -9.191 v -37.527"/><path id="path42" style="fill:#231f20;fill-opacity:1;fill-rule:nonzero;stroke:none" d="m 658,666.742 h -9.18 V 610.18 H 658 v 33.371 c 0,7.625 2.578,15.359 12.777,15.359 1.68,0 3.231,-0.351 4.922,-0.574 v 9.519 c -8.965,0 -13.672,-0.996 -17.476,-9.628 H 658 v 8.515"/><path id="path44" style="fill:#231f20;fill-opacity:1;fill-rule:nonzero;stroke:none" d="m 713.93,648.031 h 10.976 c 10.528,0 18.469,-2.226 18.469,-15.117 0,-5.926 -3.906,-13.777 -14.887,-13.777 H 713.93 Z m 0,34.063 h 14.558 c 8.625,0 12.43,-5.496 12.43,-12.207 0,-7.852 -3.914,-12.782 -11.977,-12.879 H 713.93 Z m 15.683,-71.914 c 9.176,0 24.289,2.011 24.289,22.734 0,11.086 -5.035,18.039 -16.562,19.387 v 0.547 c 10.414,2.351 13.883,9.082 13.883,19.168 0,1.554 -0.45,6.367 -3.254,10.754 -3.016,4.472 -6.824,8.269 -18.028,8.269 H 703.629 V 610.18 h 25.984 v 0"/><path id="path46" style="fill:#231f20;fill-opacity:1;fill-rule:nonzero;stroke:none" d="m 777.828,666.742 h -9.183 V 610.18 h 9.183 z m -9.742,14.453 h 10.309 v 9.844 h -10.309 v -9.844"/><path id="path48" style="fill:#231f20;fill-opacity:1;fill-rule:nonzero;stroke:none" d="m 803.801,691.039 h -9.18 V 610.18 h 9.18 v 80.859"/><path id="path50" style="fill:#231f20;fill-opacity:1;fill-rule:nonzero;stroke:none" d="m 849.602,640.758 c 0,-11.418 0,-24.199 -10.309,-24.199 -11.543,0 -11.543,12.332 -11.543,20.839 0,15.118 1.352,22.957 11.207,22.957 10.191,0 10.645,-12.097 10.645,-19.597 z m 0,20.281 h -0.352 c -3.125,4.465 -7.043,6.816 -12.422,6.816 -18.254,0 -18.707,-16.23 -18.707,-30.351 0,-24.863 9.188,-28.445 18.258,-28.445 5.941,0 9.851,2.578 13.008,7.851 h 0.215 v -6.73 h 9.179 v 80.859 h -9.179 v -30"/><path id="path52" style="fill:#231f20;fill-opacity:1;fill-rule:nonzero;stroke:none" d="m 905.949,629.215 c 0,-9.406 -6.176,-13.098 -11.094,-13.098 -6.503,0 -9.628,4.602 -9.628,11.418 v 39.207 h -9.204 v -43.125 c 0,-9.629 5.375,-14.558 15.239,-14.558 5.937,0 11.328,2.8 14.336,7.949 h 0.351 v -6.828 h 9.727 c -0.332,3.925 -0.567,7.843 -0.567,11.758 v 44.804 h -9.16 v -37.527"/><path id="path54" style="fill:#231f20;fill-opacity:1;fill-rule:nonzero;stroke:none" d="m 971.574,610.18 v 39.199 c 0,11.203 -3.027,18.476 -15.117,18.476 -7.285,0 -11.543,-2.011 -15.117,-8.398 h -0.469 v 7.285 h -9.726 c 0.332,-3.926 0.566,-7.832 0.566,-11.765 V 610.18 h 9.16 v 33.496 c 0,7.726 1.465,16.679 11.543,16.679 7.852,0 9.981,-4.929 9.981,-10.976 V 610.18 h 9.179 v 0"/><path id="path56" style="fill:#231f20;fill-opacity:1;fill-rule:nonzero;stroke:none" d="m 1016.95,638.746 c 0,-7.851 0.32,-20.949 -10.77,-20.949 -6.832,0 -10.973,4.25 -10.973,22.394 0,7.508 0.332,20.047 10.763,20.047 11.52,0 10.98,-13.093 10.98,-21.492 z m -0.24,21.055 h -0.21 c -2.58,5.476 -7.29,8.054 -13.23,8.054 -4.586,0 -17.692,-1.667 -17.692,-27.664 0,-16.796 3.027,-30.011 18.362,-30.011 4.92,0 10.08,2.578 12.44,7.05 h 0.33 v -11.746 c 0,-5.832 -3.48,-9.757 -9.84,-9.757 -5.06,0 -8.538,2.921 -8.636,8.183 h -10.312 c -0.781,-10.41 7.734,-15.117 17.148,-15.117 12.42,0 20.82,3.019 20.82,15.676 v 62.273 h -9.18 v -6.941"/><path id="path58" style="fill:#231f20;fill-opacity:1;fill-rule:nonzero;stroke:none" d="m 569,768.031 h 10.98 c 10.528,0 18.477,-2.226 18.477,-15.117 0,-5.926 -3.922,-13.777 -14.887,-13.777 H 569 Z m 0,34.063 h 14.57 c 8.614,0 12.43,-5.496 12.43,-12.207 0,-7.852 -3.93,-12.782 -12,-12.879 h -15 z m 15.672,-71.914 c 9.199,0 24.312,2.011 24.312,22.734 0,11.086 -5.035,18.039 -16.578,19.387 v 0.547 c 10.422,2.351 13.899,9.082 13.899,19.168 0,1.554 -0.45,6.367 -3.254,10.754 -3.016,4.472 -6.824,8.269 -18.028,8.269 H 558.695 V 730.18 h 25.977 v 0"/><path id="path60" style="fill:#231f20;fill-opacity:1;fill-rule:nonzero;stroke:none" d="m 652.289,749.215 c 0,-9.406 -6.172,-13.098 -11.101,-13.098 -6.485,0 -9.629,4.602 -9.629,11.418 v 39.207 h -9.176 v -43.125 c 0,-9.629 5.371,-14.558 15.226,-14.558 5.93,0 11.313,2.8 14.329,7.949 h 0.351 v -6.828 h 9.727 c -0.325,3.925 -0.551,7.843 -0.551,11.758 v 44.804 h -9.176 v -37.527"/><path id="path62" style="fill:#231f20;fill-opacity:1;fill-rule:nonzero;stroke:none" d="m 717.926,730.18 v 39.199 c 0,11.203 -3.031,18.476 -15.133,18.476 -7.273,0 -11.531,-2.011 -15.113,-8.398 h -0.453 v 7.285 h -9.743 c 0.344,-3.926 0.567,-7.832 0.567,-11.765 V 730.18 h 9.176 v 33.496 c 0,7.726 1.457,16.679 11.543,16.679 7.835,0 9.964,-4.929 9.964,-10.976 V 730.18 h 9.192 v 0"/><path id="path64" style="fill:#231f20;fill-opacity:1;fill-rule:nonzero;stroke:none" d="m 763.051,760.758 c 0,-11.418 0,-24.199 -10.301,-24.199 -11.527,0 -11.527,12.332 -11.527,20.839 0,15.118 1.336,22.957 11.199,22.957 10.18,0 10.629,-12.097 10.629,-19.597 z m 0,20.281 h -0.324 c -3.133,4.465 -7.063,6.816 -12.434,6.816 -18.262,0 -18.711,-16.23 -18.711,-30.351 0,-24.863 9.184,-28.445 18.262,-28.445 5.933,0 9.855,2.578 12.984,7.851 h 0.223 v -6.73 h 9.191 v 80.859 h -9.191 v -30"/><path id="path66" style="fill:#231f20;fill-opacity:1;fill-rule:nonzero;stroke:none" d="m 795.988,762.438 c 0.11,15.671 4.93,18.476 10.754,18.476 6.711,0 11.317,-2.004 11.317,-18.476 h -22.071 z m 31.809,-6.946 v 4.817 c 0,18.699 -4.043,27.546 -20.156,27.546 -19.602,0 -21.508,-13.652 -21.508,-30.234 0,-24.98 9.515,-28.562 21.508,-28.562 11.871,0 19.597,5.711 19.707,18.25 H 817.27 c -0.336,-5.692 -3.594,-10.75 -9.852,-10.75 -7.172,0 -11.43,3.144 -11.43,18.933 h 31.809 v 0"/><path id="path68" style="fill:#231f20;fill-opacity:1;fill-rule:nonzero;stroke:none" d="m 878.43,746.312 c 0,17.239 -28.223,17.024 -28.223,26.993 0,4.922 3.809,7.609 8.731,7.609 5.82,0 8.96,-3.137 8.847,-9.062 h 10.195 c 0.782,11.191 -7.851,16.003 -17.929,16.003 -15.903,0 -19.485,-9.519 -19.485,-15.449 0,-16.914 28.235,-17.136 28.235,-27.215 0,-5.832 -4.258,-8.632 -9.746,-8.632 -9.297,0 -9.414,7.625 -9.414,10.867 h -10.418 c -0.336,-12.988 7.273,-18.367 19.5,-18.367 11.191,0 19.707,4.824 19.707,17.253 v 0"/><path id="path70" style="fill:#231f20;fill-opacity:1;fill-rule:nonzero;stroke:none" d="m 929.699,730.18 v 38.078 c 0,2.129 0.43,7.734 3.145,9.969 2.441,2.011 3.457,2.128 6.929,2.128 7.407,0 8.969,-5.261 8.969,-10.976 V 730.18 h 9.18 v 43.008 c 0,13.332 -9.531,14.667 -15.449,14.667 -5.157,0 -10.313,-1.218 -13.438,-7.273 -2.148,5.145 -8.086,7.273 -13.223,7.273 -6.601,0 -11.425,-2.128 -14.101,-8.171 h -0.234 v 7.058 h -9.747 c 0.332,-3.926 0.567,-7.832 0.567,-11.765 V 730.18 h 9.18 v 38.078 c 0,2.129 0.449,5.496 2.128,8.301 1.348,2.129 5.157,3.796 7.95,3.796 7.402,0 8.945,-5.261 8.945,-10.976 V 730.18 h 9.199 v 0"/><path id="path72" style="fill:#231f20;fill-opacity:1;fill-rule:nonzero;stroke:none" d="m 983.332,786.742 h -9.184 V 730.18 h 9.184 z m -9.746,14.453 h 10.312 v 9.844 h -10.312 v -9.844"/><path id="path74" style="fill:#231f20;fill-opacity:1;fill-rule:nonzero;stroke:none" d="m 1039.88,730.18 v 39.199 c 0,11.203 -3.01,18.476 -15.12,18.476 -7.29,0 -11.53,-2.011 -15.12,-8.398 h -0.45 v 7.285 h -9.745 c 0.328,-3.926 0.547,-7.832 0.547,-11.765 V 730.18 h 9.198 v 33.496 c 0,7.726 1.47,16.679 11.54,16.679 7.84,0 9.97,-4.929 9.97,-10.976 V 730.18 h 9.18 v 0"/><path id="path76" style="fill:#231f20;fill-opacity:1;fill-rule:nonzero;stroke:none" d="m 1065.3,786.742 h -9.18 V 730.18 h 9.18 z m -9.74,14.453 h 10.29 v 9.844 h -10.29 v -9.844"/><path id="path78" style="fill:#231f20;fill-opacity:1;fill-rule:nonzero;stroke:none" d="m 1117.49,746.312 c 0,17.239 -28.24,17.024 -28.24,26.993 0,4.922 3.81,7.609 8.73,7.609 5.84,0 8.98,-3.137 8.85,-9.062 h 10.21 c 0.78,11.191 -7.85,16.003 -17.93,16.003 -15.9,0 -19.49,-9.519 -19.49,-15.449 0,-16.914 28.24,-17.136 28.24,-27.215 0,-5.832 -4.27,-8.632 -9.74,-8.632 -9.32,0 -9.42,7.625 -9.42,10.867 h -10.43 c -0.31,-12.988 7.29,-18.367 19.52,-18.367 11.17,0 19.7,4.824 19.7,17.253 v 0"/><path id="path80" style="fill:#231f20;fill-opacity:1;fill-rule:nonzero;stroke:none" d="m 1123.62,786.742 v -6.941 h 9.28 v -40.215 c 0,-6.496 3.93,-10.078 12.66,-10.078 3.03,0 6.05,0.672 9.08,0.906 v 7.043 c -2.01,-0.227 -3.48,-0.449 -4.14,-0.449 -8.4,0 -8.4,4.609 -8.4,8.183 v 34.61 h 12.31 v 6.941 h -12.31 v 15 l -9.2,-4.129 v -10.871 h -9.28 v 0"/><path id="path82" style="fill:#231f20;fill-opacity:1;fill-rule:nonzero;stroke:none" d="m 1171.96,762.438 c 0.12,15.671 4.93,18.476 10.77,18.476 6.72,0 11.31,-2.004 11.31,-18.476 h -22.08 z m 31.82,-6.946 v 4.817 c 0,18.699 -4.02,27.546 -20.16,27.546 -19.6,0 -21.5,-13.652 -21.5,-30.234 0,-24.98 9.51,-28.562 21.5,-28.562 11.86,0 19.59,5.711 19.71,18.25 h -10.08 c -0.35,-5.692 -3.57,-10.75 -9.84,-10.75 -7.19,0 -11.45,3.144 -11.45,18.933 h 31.82 v 0"/><path id="path84" style="fill:#231f20;fill-opacity:1;fill-rule:nonzero;stroke:none" d="m 1226.52,786.742 h -9.18 V 730.18 h 9.18 v 33.371 c 0,7.625 2.57,15.359 12.77,15.359 1.68,0 3.24,-0.351 4.92,-0.574 v 9.519 c -8.96,0 -13.65,-0.996 -17.46,-9.628 h -0.23 v 8.515"/><path id="path86" style="fill:#231f20;fill-opacity:1;fill-rule:nonzero;stroke:none" d="M 1263.2,786.742 H 1254 V 730.18 h 9.2 z m -9.75,14.453 h 10.31 v 9.844 h -10.31 v -9.844"/><path id="path88" style="fill:#231f20;fill-opacity:1;fill-rule:nonzero;stroke:none" d="m 1309.31,749.215 c 0,-9.406 -6.13,-13.098 -11.08,-13.098 -6.5,0 -9.62,4.602 -9.62,11.418 v 39.207 h -9.18 v -43.125 c 0,-9.629 5.37,-14.558 15.23,-14.558 5.94,0 11.31,2.8 14.34,7.949 h 0.31 v -6.828 h 9.76 c -0.35,3.925 -0.56,7.843 -0.56,11.758 v 44.804 h -9.2 v -37.527"/><path id="path90" style="fill:#231f20;fill-opacity:1;fill-rule:nonzero;stroke:none" d="m 1372.38,730.18 v 38.078 c 0,2.129 0.44,7.734 3.14,9.969 2.46,2.011 3.46,2.128 6.93,2.128 7.41,0 8.97,-5.261 8.97,-10.976 V 730.18 h 9.2 v 43.008 c 0,13.332 -9.53,14.667 -15.47,14.667 -5.16,0 -10.29,-1.218 -13.44,-7.273 -2.13,5.145 -8.07,7.273 -13.22,7.273 -6.6,0 -11.43,-2.128 -14.1,-8.171 h -0.24 v 7.058 h -9.74 c 0.35,-3.926 0.56,-7.832 0.56,-11.765 V 730.18 h 9.18 v 38.078 c 0,2.129 0.45,5.496 2.13,8.301 1.35,2.129 5.16,3.796 7.97,3.796 7.36,0 8.95,-5.261 8.95,-10.976 V 730.18 h 9.18 v 0"/><path id="path92" style="fill:#f2cf04;fill-opacity:1;fill-rule:nonzero;stroke:none" d="m 452.402,410.172 h 35.43 V 210.16 h -35.43 v 200.012"/><path id="path94" style="fill:#ed1c24;fill-opacity:1;fill-rule:nonzero;stroke:none" d="m 452.402,610.875 h 35.43 V 410.172 h -35.43 v 200.703"/><path id="path96" style="fill:#231f20;fill-opacity:1;fill-rule:nonzero;stroke:none" d="m 452.402,810.172 h 35.43 V 610.18 h -35.43 v 199.992"/><path id="path98" style="fill:#231f20;fill-opacity:1;fill-rule:nonzero;stroke:none" d="m 250.082,610.141 z m 0.012,-0.086 z m -0.02,-0.02 z m 0,0.145 z m 91.805,166.172 c 0,11.398 -8.285,20.41 -11.199,22.96 l -2.102,-0.48 c 3.102,-3.789 8.57,-10.125 8.57,-18.523 0,-16.524 -17.464,-30.891 -37.398,-31.153 0.152,-1.699 0.145,-3.203 0.145,-4.484 0,-2.363 -0.153,-4.676 -0.438,-6.922 22.625,0.41 42.422,18.797 42.422,38.602 z M 310.691,639.527 c -9.656,0 -11.746,1.016 -14.293,1.016 -1.636,0 -3.191,-0.156 -3.191,-2.473 0,-1.609 1.809,-3.953 3.438,-5.183 2.273,2.254 5.39,2.742 10.425,2.742 2.356,0 5.563,-0.457 6.977,-0.645 -0.195,-1.394 -0.477,-3.191 -0.477,-5.722 0,-1.328 0.047,-2.879 0.047,-4.52 0,-5.695 -0.832,-8.722 -2.82,-11.008 0.43,-0.261 1.57,-0.496 2.254,-0.496 3.699,0 4.644,1.883 4.644,11.485 0,2.898 0.235,5.586 0.235,6.277 5.168,-3.945 10.433,-10.977 10.433,-16.062 1.688,0.867 3.672,3.417 3.672,5.332 0,3.464 -5.789,8.621 -11.933,14.843 0.855,0.203 3.136,0.86 5.011,0.86 4.825,0 8.727,-0.801 10.996,-3.477 0.899,0.977 1.641,3.914 1.641,5.574 0,2.891 -1.66,2.793 -2.863,2.793 -5.137,0 -11.485,-0.801 -16.028,-1.551 -1.652,2.208 -12.179,16.446 -14.91,24.043 -0.785,0.274 -1.394,0.497 -2.687,0.497 -2.532,0 -3.192,-1.766 -3.844,-4.188 5.801,-7.043 11.383,-14.699 13.273,-20.137 z m -57.64,20.137 c -0.653,2.422 -1.297,4.188 -3.832,4.188 -1.305,0 -1.914,-0.223 -2.68,-0.497 -2.75,-7.597 -13.266,-21.835 -14.93,-24.043 -4.523,0.75 -10.89,1.551 -16.019,1.551 -1.211,0 -2.863,0.098 -2.863,-2.793 0,-1.66 0.734,-4.597 1.644,-5.574 2.262,2.676 6.172,3.477 10.988,3.477 1.887,0 4.153,-0.657 5.008,-0.86 -6.144,-6.222 -11.933,-11.379 -11.933,-14.843 0,-1.915 1.996,-4.465 3.679,-5.332 0,5.085 5.27,12.117 10.426,16.062 0,-0.691 0.246,-3.379 0.246,-6.277 0,-9.602 0.945,-11.485 4.641,-11.485 0.676,0 1.816,0.235 2.258,0.496 -1.989,2.286 -2.829,5.313 -2.829,11.008 0,1.641 0.063,3.192 0.063,4.52 0,2.531 -0.297,4.328 -0.488,5.722 1.406,0.188 4.625,0.645 6.98,0.645 5.024,0 8.145,-0.488 10.422,-2.742 1.633,1.23 3.438,3.574 3.438,5.183 0,2.317 -1.551,2.473 -3.192,2.473 -2.555,0 -4.637,-1.016 -14.297,-1.016 1.899,5.438 7.469,13.094 13.27,20.137 z m -39.719,120.645 c 0,8.398 5.469,14.734 8.559,18.523 l -2.082,0.48 c -2.934,-2.55 -11.211,-11.562 -11.211,-22.96 0,-19.942 20.078,-38.457 42.91,-38.614 -0.242,2.168 -0.383,4.465 -0.383,6.934 0,1.535 0.063,3.047 0.191,4.465 -20.171,0 -37.984,14.492 -37.984,31.172 z m 61.34,15.359 c 1.043,2.394 2.437,5.234 2.437,8.359 0,8.653 -7.171,12.774 -16.773,12.774 -4.93,0 -7.422,-1.59 -7.422,-3.192 0,-1.601 1.633,-5.117 2.258,-6.203 1.769,0.793 4.98,1.731 6.836,1.731 6.59,0 11.512,-7.395 12.664,-13.469 z m 4.719,11.066 c 5.613,-1.093 9.437,6.075 4.105,7.352 0.738,-2.363 -2.851,-4.031 -2.851,-4.031 0,0 -1.368,3.164 0.406,4.968 -3.266,1.602 -4.094,-0.339 -4.156,-2.351 1.285,-1.719 2.121,-3.723 2.496,-5.938 z m 18.168,-49.132 c 0.898,-0.059 1.753,-0.106 2.652,-0.106 15.797,0 31.469,10.215 31.469,23.309 0,6.984 -3.141,11.867 -7.02,17.277 -2.277,-0.383 -4.351,-0.598 -5.984,-0.598 -7.156,0 -11.039,3.84 -11.321,7.61 0,3.386 2.758,5.957 7.04,5.957 6.644,0 18.761,-6.223 30.964,-6.223 -1.199,-0.906 -3.195,-1.863 -5.601,-2.762 7.152,-6.445 11.933,-15.078 13.758,-24.308 l 18.707,-29.942 c 3.136,-5 9.785,-14.824 19.789,-22.5 -12.094,0 -20.133,-0.281 -30.356,15.899 l -9.586,15.344 c -0.707,-1.985 -1.59,-3.918 -2.613,-5.813 l 19.066,-30.527 c 3.18,-5.047 9.743,-14.805 19.801,-22.508 -12.101,0 -20.117,-0.293 -30.355,15.898 l -16.414,26.278 c -1.227,-1.297 -2.52,-2.578 -3.895,-3.809 l 23.172,-37.07 c 3.188,-5.078 9.73,-14.774 19.797,-22.5 -12.106,0 -20.125,-0.281 -30.363,15.91 l -22.575,36.133 c -1.496,-0.949 -3.011,-1.848 -4.574,-2.715 l 27.547,-44.102 c 3.18,-5.058 9.719,-14.777 19.797,-22.5 -12.098,0 -20.133,-0.285 -30.348,15.907 l -28.379,45.421 c -1.679,-0.656 -3.394,-1.261 -5.125,-1.816 l 32.079,-51.34 c 3.121,-4.968 9.824,-14.832 19.781,-22.488 -12.098,0 -20.129,-0.285 -30.348,15.906 l -34.18,54.707 -1.046,-0.183 c -0.926,-2.961 -1.571,-5.723 -1.571,-8.477 0,-17.187 11.278,-32.363 24.824,-44.082 -0.875,-0.371 -2.382,-0.519 -3.781,-0.519 -2.781,0 -4.594,0.168 -5.867,0.382 3.148,-7.14 9.883,-16.34 13.285,-21.105 4.434,0.793 10.883,1.426 15.102,1.426 4.414,0 4.902,-2.586 4.902,-4.903 0,-4.004 -1.875,-7.226 -4.047,-9.004 -0.816,2.071 -2.465,4.805 -10.629,4.805 l -0.824,-0.027 c 2.395,-2.668 9.856,-8.703 9.856,-13.574 0,-3.215 -3.528,-8.04 -8.192,-8.04 0.293,1.036 0.242,1.993 0.242,2.708 0,3.933 -3.484,8.542 -6.429,11.757 0.074,-0.957 0.039,-0.851 0.039,-1.972 0,-9.309 -0.836,-13.586 -6.754,-13.586 -2.895,0 -4.903,1.593 -5.586,2.062 3.836,3.543 4.043,6.328 4.043,11.543 l -0.039,4.52 c -0.008,1.191 0.011,2.765 0.195,3.918 -2.117,0.293 -2.957,0.281 -4.594,0.281 0,0 -8.406,0.664 -10.425,-3.699 -2.274,2.078 -5.575,5.027 -5.575,8.308 0,2.149 1.012,4.582 5.328,4.582 1.641,0 6.793,-1.015 11.106,-1.015 -1.152,2.578 -6.316,10.117 -10.77,15.605 -0.683,-2.121 -1.742,-4.433 -4.086,-6.301 -0.324,3.528 -2.382,14.641 -7.886,21.133 -0.641,-4.383 -1.508,-8.894 -1.508,-18.398 0,-23.133 5.562,-40.223 17.375,-43.496 -1.531,-2.684 -4.777,-5.086 -8.152,-5.086 -4.321,0 -6.676,4.89 -9.079,9.511 -1.246,-3.417 -4.691,-11.738 -8.164,-11.738 -3.457,0 -6.91,8.321 -8.152,11.738 -2.402,-4.621 -4.758,-9.511 -9.09,-9.511 -3.363,0 -6.613,2.402 -8.144,5.086 11.8,3.273 17.375,20.363 17.375,43.496 0,9.504 -0.864,14.015 -1.516,18.398 -5.492,-6.492 -7.562,-17.605 -7.879,-21.133 -2.344,1.868 -3.402,4.18 -4.082,6.301 -4.457,-5.488 -9.613,-13.027 -10.781,-15.605 4.324,0 9.473,1.015 11.113,1.015 4.32,0 5.34,-2.433 5.34,-4.582 0,-3.281 -3.32,-6.23 -5.586,-8.308 -2.023,4.363 -10.422,3.699 -10.422,3.699 -1.633,0 -2.476,0.012 -4.598,-0.281 0.176,-1.153 0.215,-2.727 0.188,-3.918 l -0.023,-4.52 c 0,-5.215 0.195,-8 4.035,-11.543 -0.684,-0.469 -2.688,-2.062 -5.586,-2.062 -5.918,0 -6.762,4.277 -6.762,13.586 0,1.121 -0.035,1.015 0.051,1.972 -2.957,-3.215 -6.434,-7.824 -6.434,-11.757 0,-0.715 -0.047,-1.672 0.235,-2.708 -4.649,0 -8.184,4.825 -8.184,8.04 0,4.871 7.473,10.906 9.856,13.574 l -0.829,0.027 c -8.156,0 -9.816,-2.734 -10.625,-4.805 -2.179,1.778 -4.054,5 -4.054,9.004 0,2.317 0.496,4.903 4.91,4.903 4.23,0 10.672,-0.633 15.101,-1.426 3.395,4.765 10.129,13.965 13.278,21.105 -1.262,-0.214 -3.067,-0.382 -5.86,-0.382 -1.394,0 -2.914,0.148 -3.769,0.519 13.531,11.719 24.805,26.895 24.805,44.082 0,2.754 -0.633,5.516 -1.571,8.477 l -1.031,0.183 -34.184,-54.707 c -10.226,-16.191 -18.254,-15.906 -30.347,-15.906 9.957,7.656 16.652,17.52 19.777,22.488 l 32.078,51.34 c -1.734,0.555 -3.433,1.16 -5.121,1.816 l -28.375,-45.421 c -10.23,-16.192 -18.266,-15.907 -30.348,-15.907 10.071,7.723 16.602,17.442 19.782,22.5 l 27.562,44.102 c -1.574,0.867 -3.094,1.766 -4.582,2.715 l -22.578,-36.133 c -10.234,-16.191 -18.254,-15.91 -30.359,-15.91 10.07,7.726 16.617,17.422 19.797,22.5 l 23.164,37.07 c -1.364,1.231 -2.661,2.512 -3.883,3.809 l -16.414,-26.278 c -10.242,-16.191 -18.262,-15.898 -30.36,-15.898 10.051,7.703 16.621,17.461 19.801,22.508 l 19.059,30.527 c -1.012,1.895 -1.891,3.828 -2.602,5.813 l -9.594,-15.344 c -10.226,-16.18 -18.254,-15.899 -30.343,-15.899 10.007,7.676 16.64,17.5 19.789,22.5 l 18.703,29.942 c 1.82,9.23 6.601,17.863 13.754,24.308 -2.395,0.899 -4.403,1.856 -5.606,2.762 12.211,0 24.317,6.211 30.961,6.211 4.297,0 7.043,-2.559 7.043,-5.945 -0.269,-3.77 -4.16,-7.61 -11.324,-7.61 -1.621,0 -3.695,0.215 -5.981,0.598 -3.874,-5.41 -7.011,-10.293 -7.011,-17.277 0,-13.094 15.664,-23.309 31.476,-23.309 0.891,0 1.746,0.047 2.637,0.106 3.133,10.605 9.797,17.57 15.125,24.375 -6.391,2.324 -13.504,8.39 -13.504,11.132 0.809,0.469 13.039,-3.379 14.309,-3.718 0.258,-0.071 0.523,-0.09 0.816,0 1.488,0.449 2.735,2.625 2.735,2.851 -1.309,0.215 -8.981,1.211 -14.231,3.113 -3.984,1.457 -6,4.102 -6,5.11 1.274,0.203 6.133,-2.344 13.258,-2.344 2.629,0 3.148,0.106 5.766,0.43 -1.84,4.375 -5.297,8.074 -9.18,8.074 -1.567,0 -4.985,-0.977 -7.848,-2.402 -1.988,3.086 -3.738,7.16 -3.738,9.386 0,2.618 2.598,5.692 9.914,5.692 2.047,0 3.957,-0.176 5.738,-0.508 1.426,-0.262 2.629,-0.586 3.922,-1.094 -0.101,0.176 -0.16,0.567 -0.16,0.93 0,1.016 0.918,2.078 4.359,2.078 6.02,0 12.196,-1.973 19.77,-1.973 1.965,0 3.293,0.059 4.43,0.539 -0.489,-1.503 -2.618,-3.73 -4.571,-5.527 1.199,-1.652 4.336,-5.617 4.336,-12.031 0,-10.305 -6.793,-18.801 -6.793,-29.219 0,-6.191 4.766,-11.641 6.192,-14.894 v 0"/><path id="path100" style="fill:#231f20;fill-opacity:1;fill-rule:nonzero;stroke:none" d="m 582.809,1047.2 c 0,5.95 -2.446,9.17 -8.961,9.17 -2.028,0 -9.305,-0.35 -9.305,-10.92 v -17.08 c 0,-11.06 3.215,-13.86 9.305,-13.86 4.625,0 7.699,1.26 9.035,2.24 v 15.12 h -9.313 v 5.6 h 15.75 v -24.57 c -4.129,-2.24 -8.957,-3.78 -15.472,-3.78 -10.707,0 -15.887,5.53 -15.887,19.53 v 16.59 c 0,10.08 5.18,16.52 15.887,16.52 10.922,0 16.105,-3.99 15.683,-14.56 h -6.722"/><path id="path102" style="fill:#231f20;fill-opacity:1;fill-rule:nonzero;stroke:none" d="m 601.359,1010.17 v 50.54 h 26.039 v -5.6 h -19.601 v -16.24 H 626 v -5.6 h -18.203 v -17.5 h 20.019 v -5.6 h -26.457"/><path id="path104" style="fill:#231f20;fill-opacity:1;fill-rule:nonzero;stroke:none" d="m 635.871,1010.17 v 50.54 h 25.059 v -5.6 h -18.621 v -16.24 h 17.644 v -5.6 h -17.644 v -23.1 h -6.438"/><path id="path106" style="fill:#231f20;fill-opacity:1;fill-rule:nonzero;stroke:none" d="m 667.227,1028.65 v 16.59 c 0,10.08 5.179,16.52 15.894,16.52 10.707,0 15.887,-6.44 15.887,-16.52 v -16.59 c 0,-14 -5.18,-19.53 -15.887,-19.53 -10.715,0 -15.894,5.53 -15.894,19.53 z m 13.089,38.01 h -6.574 v 7.28 h 6.574 z m 12.11,-38.29 v 17.08 c 0,10.57 -7.278,10.92 -9.305,10.92 -2.031,0 -9.312,-0.35 -9.312,-10.92 v -17.08 c 0,-11.06 3.218,-13.86 9.312,-13.86 6.09,0 9.305,2.8 9.305,13.86 z m 0.211,38.29 h -6.578 v 7.28 h 6.578 v -7.28"/><path id="path108" style="fill:#231f20;fill-opacity:1;fill-rule:nonzero;stroke:none" d="m 716.508,1033.41 v -23.24 h -6.438 v 50.54 h 17.43 c 8.961,0 12.109,-6.3 12.109,-12.6 0,-5.95 -3.289,-10.5 -9.242,-11.55 v -0.14 c 5.809,-0.91 7.91,-2.87 8.262,-13.02 0.066,-2.17 0.769,-10.08 1.746,-13.23 h -6.719 c -1.82,3.5 -1.398,10.08 -1.957,16.8 -0.492,6.16 -5.465,6.44 -7.633,6.44 z m 0,5.6 h 9.66 c 4.617,0 6.859,3.99 6.859,8.4 0,3.64 -1.82,7.7 -6.793,7.7 h -9.726 v -16.1"/><path id="path110" style="fill:#231f20;fill-opacity:1;fill-rule:nonzero;stroke:none" d="m 749.27,1060.71 h 15.539 c 6.441,0 11.062,-2.31 13.582,-7.7 2.031,-4.27 2.238,-14.35 2.238,-15.96 0,-10.78 -0.981,-17.01 -3.078,-20.37 -2.731,-4.34 -7.844,-6.51 -16.66,-6.51 H 749.27 Z m 6.437,-44.94 h 6.09 c 8.961,0 12.25,3.36 12.25,15.12 v 10.22 c 0,10.22 -3.149,14 -9.867,14 h -8.473 v -39.34"/><path id="path112" style="fill:#231f20;fill-opacity:1;fill-rule:nonzero;stroke:none" d="m 791.898,1010.17 v 50.54 h 26.043 v -5.6 h -19.605 v -16.24 h 18.203 v -5.6 h -18.203 v -17.5 h 20.023 v -5.6 h -26.461"/><path id="path114" style="fill:#231f20;fill-opacity:1;fill-rule:nonzero;stroke:none" d="m 833.199,1033.41 v -23.24 h -6.441 v 50.54 h 17.433 c 8.957,0 12.11,-6.3 12.11,-12.6 0,-5.95 -3.293,-10.5 -9.246,-11.55 v -0.14 c 5.812,-0.91 7.91,-2.87 8.261,-13.02 0.071,-2.17 0.774,-10.08 1.75,-13.23 h -6.718 c -1.825,3.5 -1.403,10.08 -1.957,16.8 -0.496,6.16 -5.465,6.44 -7.633,6.44 z m 0,5.6 h 9.656 c 4.622,0 6.864,3.99 6.864,8.4 0,3.64 -1.824,7.7 -6.793,7.7 h -9.727 v -16.1"/><path id="path116" style="fill:#231f20;fill-opacity:1;fill-rule:nonzero;stroke:none" d="m 894.164,1060.71 v -5.6 h -13.293 v -44.94 h -6.441 v 44.94 h -13.301 v 5.6 h 33.035"/><path id="path118" style="fill:#231f20;fill-opacity:1;fill-rule:nonzero;stroke:none" d="m 933.926,1010.17 h -7.699 l -14.629,50.54 h 6.996 l 11.554,-44.45 h 0.141 l 11.824,44.45 h 6.582 l -14.769,-50.54"/><path id="path120" style="fill:#231f20;fill-opacity:1;fill-rule:nonzero;stroke:none" d="m 955.07,1028.65 v 16.59 c 0,10.08 5.176,16.52 15.887,16.52 10.707,0 15.891,-6.44 15.891,-16.52 v -16.59 c 0,-14 -5.184,-19.53 -15.891,-19.53 -10.711,0 -15.887,5.53 -15.887,19.53 z m 25.196,-0.28 v 17.08 c 0,10.57 -7.278,10.92 -9.309,10.92 -2.031,0 -9.312,-0.35 -9.312,-10.92 v -17.08 c 0,-11.06 3.222,-13.86 9.312,-13.86 6.09,0 9.309,2.8 9.309,13.86"/><path id="path122" style="fill:#231f20;fill-opacity:1;fill-rule:nonzero;stroke:none" d="m 1004.14,1010.17 h -6.023 v 50.54 h 10.433 l 12.74,-42.42 h 0.14 l 12.88,42.42 h 10.64 v -50.54 h -6.44 v 44.94 h -0.15 l -14.14,-44.94 h -6.08 l -13.86,44.94 h -0.14 v -44.94"/></g></g></svg>