<svg width="36" height="36" viewBox="0 0 36 36" fill="none" xmlns="http://www.w3.org/2000/svg">
<mask id="mask0" mask-type="alpha" maskUnits="userSpaceOnUse" x="0" y="0" width="36" height="36">
<rect width="36" height="36" rx="10" fill="#C4C4C4"/>
</mask>
<g mask="url(#mask0)">
<rect width="36" height="36" fill="#D8D9E3"/>
</g>
<rect opacity="0.5" x="8" y="12" width="4" height="4" fill="#818394"/>
<rect x="8" y="16" width="4" height="4" fill="#818394"/>
<rect opacity="0.5" x="8" y="20" width="4" height="4" fill="#818394"/>
<rect x="12" y="12" width="4" height="4" fill="#818394"/>
<rect opacity="0.5" x="12" y="8" width="4" height="4" fill="#818394"/>
<rect opacity="0.5" x="12" y="24" width="4" height="4" fill="#818394"/>
<rect x="12" y="16" width="4" height="4" fill="#818394"/>
<rect x="12" y="20" width="4" height="4" fill="#818394"/>
<rect x="16" y="12" width="4" height="4" fill="#818394"/>
<rect x="16" y="8" width="4" height="4" fill="#818394"/>
<rect x="16" y="24" width="4" height="4" fill="#818394"/>
<rect x="16" y="16" width="4" height="4" fill="#4F5161"/>
<rect x="16" y="20" width="4" height="4" fill="#818394"/>
<rect x="20" y="12" width="4" height="4" fill="#818394"/>
<rect opacity="0.5" x="20" y="8" width="4" height="4" fill="#818394"/>
<rect opacity="0.5" x="20" y="24" width="4" height="4" fill="#818394"/>
<rect x="20" y="16" width="4" height="4" fill="#818394"/>
<rect x="20" y="20" width="4" height="4" fill="#818394"/>
<rect opacity="0.5" x="24" y="12" width="4" height="4" fill="#818394"/>
<rect x="24" y="16" width="4" height="4" fill="#818394"/>
<rect opacity="0.5" x="24" y="20" width="4" height="4" fill="#818394"/>
</svg>
